<?xml version="1.0" standalone="no"?>
<!DOCTYPE svg PUBLIC "-//W3C//DTD SVG 20010904//EN"
 "http://www.w3.org/TR/2001/REC-SVG-20010904/DTD/svg10.dtd">
<svg version="1.0" xmlns="http://www.w3.org/2000/svg"
 width="285.000000pt" height="287.000000pt" viewBox="0 0 285.000000 287.000000"
 preserveAspectRatio="xMidYMid meet">
<metadata>
Created by potrace 1.15, written by Peter Selinger 2001-2017
</metadata>
<g transform="translate(0.000000,287.000000) scale(0.100000,-0.100000)"
fill="#000000" stroke="none">
<path d="M1878 2747 c-39 -39 -168 -347 -214 -512 -47 -166 -88 -387 -99 -538
-7 -91 -6 -97 11 -97 17 0 19 8 17 72 -2 69 21 239 53 393 37 180 166 531 230
628 29 45 31 82 2 54z"/>
<path d="M2768 1412 c-2 -372 -1 -459 10 -445 9 13 12 117 11 442 0 234 -4
435 -9 446 -5 11 -10 -177 -12 -443z"/>
<path d="M980 1264 c-126 -17 -284 -49 -360 -74 -30 -10 -89 -28 -130 -40 -90
-27 -267 -101 -330 -138 -68 -40 -23 -42 53 -2 95 50 274 116 429 160 196 55
366 82 520 84 92 1 129 5 132 14 7 17 -174 15 -314 -4z"/>
<path d="M1570 1234 c1 -95 41 -343 84 -514 31 -122 94 -305 136 -395 18 -38
41 -90 51 -114 18 -40 69 -112 69 -96 0 4 -15 34 -34 68 -79 143 -190 455
-230 652 -35 171 -57 389 -41 415 9 14 117 8 280 -16 108 -16 412 -94 485
-124 25 -10 77 -31 115 -46 39 -15 107 -47 153 -70 46 -24 90 -44 100 -44 9 0
-1 9 -23 21 -22 12 -54 29 -71 40 -49 30 -292 127 -374 150 -41 12 -100 29
-131 40 -81 27 -329 67 -458 75 l-111 7 0 -49z"/>
<path d="M1002 81 c-28 -18 42 -21 448 -20 391 0 491 6 429 22 -36 10 -862 8
-877 -2z"/>
</g>
</svg>
